<svg width="109" height="109" viewBox="0 0 109 109" fill="none" xmlns="http://www.w3.org/2000/svg">
<g filter="url(#filter0_d_7028_714)">
<rect width="100" height="100" rx="20.8984" fill="#252525"/>
<path d="M47.7567 89.6081C43.2761 89.6081 40.0995 88.3375 38.227 85.7963C36.4214 83.1881 35.5186 79.2759 35.5186 74.0597C35.5186 70.8497 36.0201 66.0681 37.0232 59.715C38.0264 53.3619 39.4642 45.0359 41.3367 34.7372C39.7986 34.9378 37.8257 35.2388 35.4182 35.64C33.0776 36.0413 30.7036 36.4759 28.2961 36.9441C25.8886 37.3453 23.8823 37.7466 22.2773 38.1478C21.8761 36.8772 21.642 35.64 21.5751 34.4362C21.5082 33.2325 21.4748 32.2962 21.4748 31.6275C21.4748 27.8156 22.1436 24.7059 23.4811 22.2984C24.8854 19.8909 26.7245 18.1188 28.9982 16.9819C31.272 15.845 33.7464 15.2766 36.4214 15.2766C39.832 15.2766 43.2092 15.6109 46.5529 16.2797C49.8967 16.8816 53.2404 17.5169 56.5842 18.1856C59.9948 18.8544 63.4723 19.2556 67.0167 19.3894C69.4911 18.9213 72.2329 18.3194 75.2423 17.5838C78.3186 16.8481 80.9936 16.1459 83.2673 15.4772C83.6686 16.7478 83.9026 17.985 83.9695 19.1887C84.0364 20.3925 84.0698 21.3288 84.0698 21.9975C84.0698 25.8094 83.3007 28.9191 81.7626 31.3266C80.2914 33.7341 78.2851 35.5062 75.7439 36.6431C73.2695 37.78 70.5276 38.3484 67.5182 38.3484C66.6489 38.3484 65.8129 38.3484 65.0104 38.3484C64.2079 38.2816 63.4389 38.2147 62.7032 38.1478C62.1014 41.1572 61.4661 44.3003 60.7973 47.5772C60.1954 50.8541 59.627 54.0306 59.092 57.1069C58.557 60.1163 58.0889 62.8247 57.6876 65.2322C57.3532 67.5728 57.1861 69.345 57.1861 70.5488C57.1861 73.9594 57.4201 76.835 57.8882 79.1756C58.4232 81.5163 59.1923 83.4891 60.1954 85.0941C56.1829 88.1034 52.0367 89.6081 47.7567 89.6081Z" fill="#FAFAFA"/>
</g>
<defs>
<filter id="filter0_d_7028_714" x="0" y="0" width="109" height="109" filterUnits="userSpaceOnUse" color-interpolation-filters="sRGB">
<feFlood flood-opacity="0" result="BackgroundImageFix"/>
<feColorMatrix in="SourceAlpha" type="matrix" values="0 0 0 0 0 0 0 0 0 0 0 0 0 0 0 0 0 0 127 0" result="hardAlpha"/>
<feOffset dx="5" dy="5"/>
<feGaussianBlur stdDeviation="2"/>
<feComposite in2="hardAlpha" operator="out"/>
<feColorMatrix type="matrix" values="0 0 0 0 0 0 0 0 0 0 0 0 0 0 0 0 0 0 0.25 0"/>
<feBlend mode="normal" in2="BackgroundImageFix" result="effect1_dropShadow_7028_714"/>
<feBlend mode="normal" in="SourceGraphic" in2="effect1_dropShadow_7028_714" result="shape"/>
</filter>
</defs>
</svg>
